<?xml version="1.0" encoding="utf-8" standalone="no"?>
<!DOCTYPE svg PUBLIC "-//W3C//DTD SVG 1.1//EN"
  "http://www.w3.org/Graphics/SVG/1.1/DTD/svg11.dtd">
<svg height="503.303812pt" version="1.1" viewBox="0 0 954.690562 503.303812" width="954.690562pt" xmlns="http://www.w3.org/2000/svg" xmlns:xlink="http://www.w3.org/1999/xlink">
 <metadata>
  <rdf:RDF xmlns:cc="http://creativecommons.org/ns#" xmlns:dc="http://purl.org/dc/elements/1.1/" xmlns:rdf="http://www.w3.org/1999/02/22-rdf-syntax-ns#">
   <cc:Work>
    <dc:type rdf:resource="http://purl.org/dc/dcmitype/StillImage"/>
    <dc:date>2021-08-18T07:47:18.498090</dc:date>
    <dc:format>image/svg+xml</dc:format>
    <dc:creator>
     <cc:Agent>
      <dc:title>Matplotlib v3.4.2, https://matplotlib.org/</dc:title>
     </cc:Agent>
    </dc:creator>
   </cc:Work>
  </rdf:RDF>
 </metadata>
 <defs>
  <style type="text/css">*{stroke-linecap:butt;stroke-linejoin:round;}</style>
 </defs>
 <g id="figure_1">
  <g id="patch_1">
   <path d="M 0 503.303812 
L 954.690562 503.303812 
L 954.690562 0 
L 0 0 
z
" style="fill:#ffffff;"/>
  </g>
  <g id="axes_1">
   <g id="patch_2">
    <path d="M 54.690563 458.56275 
L 947.490563 458.56275 
L 947.490563 23.68275 
L 54.690563 23.68275 
z
" style="fill:#eaeaf2;"/>
   </g>
   <g id="matplotlib.axis_1">
    <g id="xtick_1">
     <g id="text_1">
      <!-- 0 -->
      <g style="fill:#262626;" transform="translate(69.620344 476.311062)scale(0.132 -0.132)">
       <defs>
        <path d="M 266 2259 
Q 266 3072 433 3567 
Q 600 4063 929 4331 
Q 1259 4600 1759 4600 
Q 2128 4600 2406 4451 
Q 2684 4303 2865 4023 
Q 3047 3744 3150 3342 
Q 3253 2941 3253 2259 
Q 3253 1453 3087 958 
Q 2922 463 2592 192 
Q 2263 -78 1759 -78 
Q 1097 -78 719 397 
Q 266 969 266 2259 
z
M 844 2259 
Q 844 1131 1108 757 
Q 1372 384 1759 384 
Q 2147 384 2411 759 
Q 2675 1134 2675 2259 
Q 2675 3391 2411 3762 
Q 2147 4134 1753 4134 
Q 1366 4134 1134 3806 
Q 844 3388 844 2259 
z
" id="ArialMT-30" transform="scale(0.015625)"/>
       </defs>
       <use xlink:href="#ArialMT-30"/>
      </g>
     </g>
    </g>
    <g id="xtick_2">
     <g id="text_2">
      <!-- 1 -->
      <g style="fill:#262626;" transform="translate(106.820344 476.311062)scale(0.132 -0.132)">
       <defs>
        <path d="M 2384 0 
L 1822 0 
L 1822 3584 
Q 1619 3391 1289 3197 
Q 959 3003 697 2906 
L 697 3450 
Q 1169 3672 1522 3987 
Q 1875 4303 2022 4600 
L 2384 4600 
L 2384 0 
z
" id="ArialMT-31" transform="scale(0.015625)"/>
       </defs>
       <use xlink:href="#ArialMT-31"/>
      </g>
     </g>
    </g>
    <g id="xtick_3">
     <g id="text_3">
      <!-- 2 -->
      <g style="fill:#262626;" transform="translate(144.020344 476.311062)scale(0.132 -0.132)">
       <defs>
        <path d="M 3222 541 
L 3222 0 
L 194 0 
Q 188 203 259 391 
Q 375 700 629 1000 
Q 884 1300 1366 1694 
Q 2113 2306 2375 2664 
Q 2638 3022 2638 3341 
Q 2638 3675 2398 3904 
Q 2159 4134 1775 4134 
Q 1369 4134 1125 3890 
Q 881 3647 878 3216 
L 300 3275 
Q 359 3922 746 4261 
Q 1134 4600 1788 4600 
Q 2447 4600 2831 4234 
Q 3216 3869 3216 3328 
Q 3216 3053 3103 2787 
Q 2991 2522 2730 2228 
Q 2469 1934 1863 1422 
Q 1356 997 1212 845 
Q 1069 694 975 541 
L 3222 541 
z
" id="ArialMT-32" transform="scale(0.015625)"/>
       </defs>
       <use xlink:href="#ArialMT-32"/>
      </g>
     </g>
    </g>
    <g id="xtick_4">
     <g id="text_4">
      <!-- 3 -->
      <g style="fill:#262626;" transform="translate(181.220344 476.311062)scale(0.132 -0.132)">
       <defs>
        <path d="M 269 1209 
L 831 1284 
Q 928 806 1161 595 
Q 1394 384 1728 384 
Q 2125 384 2398 659 
Q 2672 934 2672 1341 
Q 2672 1728 2419 1979 
Q 2166 2231 1775 2231 
Q 1616 2231 1378 2169 
L 1441 2663 
Q 1497 2656 1531 2656 
Q 1891 2656 2178 2843 
Q 2466 3031 2466 3422 
Q 2466 3731 2256 3934 
Q 2047 4138 1716 4138 
Q 1388 4138 1169 3931 
Q 950 3725 888 3313 
L 325 3413 
Q 428 3978 793 4289 
Q 1159 4600 1703 4600 
Q 2078 4600 2393 4439 
Q 2709 4278 2876 4000 
Q 3044 3722 3044 3409 
Q 3044 3113 2884 2869 
Q 2725 2625 2413 2481 
Q 2819 2388 3044 2092 
Q 3269 1797 3269 1353 
Q 3269 753 2831 336 
Q 2394 -81 1725 -81 
Q 1122 -81 723 278 
Q 325 638 269 1209 
z
" id="ArialMT-33" transform="scale(0.015625)"/>
       </defs>
       <use xlink:href="#ArialMT-33"/>
      </g>
     </g>
    </g>
    <g id="xtick_5">
     <g id="text_5">
      <!-- 4 -->
      <g style="fill:#262626;" transform="translate(218.420344 476.311062)scale(0.132 -0.132)">
       <defs>
        <path d="M 2069 0 
L 2069 1097 
L 81 1097 
L 81 1613 
L 2172 4581 
L 2631 4581 
L 2631 1613 
L 3250 1613 
L 3250 1097 
L 2631 1097 
L 2631 0 
L 2069 0 
z
M 2069 1613 
L 2069 3678 
L 634 1613 
L 2069 1613 
z
" id="ArialMT-34" transform="scale(0.015625)"/>
       </defs>
       <use xlink:href="#ArialMT-34"/>
      </g>
     </g>
    </g>
    <g id="xtick_6">
     <g id="text_6">
      <!-- 5 -->
      <g style="fill:#262626;" transform="translate(255.620344 476.311062)scale(0.132 -0.132)">
       <defs>
        <path d="M 266 1200 
L 856 1250 
Q 922 819 1161 601 
Q 1400 384 1738 384 
Q 2144 384 2425 690 
Q 2706 997 2706 1503 
Q 2706 1984 2436 2262 
Q 2166 2541 1728 2541 
Q 1456 2541 1237 2417 
Q 1019 2294 894 2097 
L 366 2166 
L 809 4519 
L 3088 4519 
L 3088 3981 
L 1259 3981 
L 1013 2750 
Q 1425 3038 1878 3038 
Q 2478 3038 2890 2622 
Q 3303 2206 3303 1553 
Q 3303 931 2941 478 
Q 2500 -78 1738 -78 
Q 1113 -78 717 272 
Q 322 622 266 1200 
z
" id="ArialMT-35" transform="scale(0.015625)"/>
       </defs>
       <use xlink:href="#ArialMT-35"/>
      </g>
     </g>
    </g>
    <g id="xtick_7">
     <g id="text_7">
      <!-- 6 -->
      <g style="fill:#262626;" transform="translate(292.820344 476.311062)scale(0.132 -0.132)">
       <defs>
        <path d="M 3184 3459 
L 2625 3416 
Q 2550 3747 2413 3897 
Q 2184 4138 1850 4138 
Q 1581 4138 1378 3988 
Q 1113 3794 959 3422 
Q 806 3050 800 2363 
Q 1003 2672 1297 2822 
Q 1591 2972 1913 2972 
Q 2475 2972 2870 2558 
Q 3266 2144 3266 1488 
Q 3266 1056 3080 686 
Q 2894 316 2569 119 
Q 2244 -78 1831 -78 
Q 1128 -78 684 439 
Q 241 956 241 2144 
Q 241 3472 731 4075 
Q 1159 4600 1884 4600 
Q 2425 4600 2770 4297 
Q 3116 3994 3184 3459 
z
M 888 1484 
Q 888 1194 1011 928 
Q 1134 663 1356 523 
Q 1578 384 1822 384 
Q 2178 384 2434 671 
Q 2691 959 2691 1453 
Q 2691 1928 2437 2201 
Q 2184 2475 1800 2475 
Q 1419 2475 1153 2201 
Q 888 1928 888 1484 
z
" id="ArialMT-36" transform="scale(0.015625)"/>
       </defs>
       <use xlink:href="#ArialMT-36"/>
      </g>
     </g>
    </g>
    <g id="xtick_8">
     <g id="text_8">
      <!-- 7 -->
      <g style="fill:#262626;" transform="translate(330.020344 476.311062)scale(0.132 -0.132)">
       <defs>
        <path d="M 303 3981 
L 303 4522 
L 3269 4522 
L 3269 4084 
Q 2831 3619 2401 2847 
Q 1972 2075 1738 1259 
Q 1569 684 1522 0 
L 944 0 
Q 953 541 1156 1306 
Q 1359 2072 1739 2783 
Q 2119 3494 2547 3981 
L 303 3981 
z
" id="ArialMT-37" transform="scale(0.015625)"/>
       </defs>
       <use xlink:href="#ArialMT-37"/>
      </g>
     </g>
    </g>
    <g id="xtick_9">
     <g id="text_9">
      <!-- 8 -->
      <g style="fill:#262626;" transform="translate(367.220344 476.311062)scale(0.132 -0.132)">
       <defs>
        <path d="M 1131 2484 
Q 781 2613 612 2850 
Q 444 3088 444 3419 
Q 444 3919 803 4259 
Q 1163 4600 1759 4600 
Q 2359 4600 2725 4251 
Q 3091 3903 3091 3403 
Q 3091 3084 2923 2848 
Q 2756 2613 2416 2484 
Q 2838 2347 3058 2040 
Q 3278 1734 3278 1309 
Q 3278 722 2862 322 
Q 2447 -78 1769 -78 
Q 1091 -78 675 323 
Q 259 725 259 1325 
Q 259 1772 486 2073 
Q 713 2375 1131 2484 
z
M 1019 3438 
Q 1019 3113 1228 2906 
Q 1438 2700 1772 2700 
Q 2097 2700 2305 2904 
Q 2513 3109 2513 3406 
Q 2513 3716 2298 3927 
Q 2084 4138 1766 4138 
Q 1444 4138 1231 3931 
Q 1019 3725 1019 3438 
z
M 838 1322 
Q 838 1081 952 856 
Q 1066 631 1291 507 
Q 1516 384 1775 384 
Q 2178 384 2440 643 
Q 2703 903 2703 1303 
Q 2703 1709 2433 1975 
Q 2163 2241 1756 2241 
Q 1359 2241 1098 1978 
Q 838 1716 838 1322 
z
" id="ArialMT-38" transform="scale(0.015625)"/>
       </defs>
       <use xlink:href="#ArialMT-38"/>
      </g>
     </g>
    </g>
    <g id="xtick_10">
     <g id="text_10">
      <!-- 9 -->
      <g style="fill:#262626;" transform="translate(404.420344 476.311062)scale(0.132 -0.132)">
       <defs>
        <path d="M 350 1059 
L 891 1109 
Q 959 728 1153 556 
Q 1347 384 1650 384 
Q 1909 384 2104 503 
Q 2300 622 2425 820 
Q 2550 1019 2634 1356 
Q 2719 1694 2719 2044 
Q 2719 2081 2716 2156 
Q 2547 1888 2255 1720 
Q 1963 1553 1622 1553 
Q 1053 1553 659 1965 
Q 266 2378 266 3053 
Q 266 3750 677 4175 
Q 1088 4600 1706 4600 
Q 2153 4600 2523 4359 
Q 2894 4119 3086 3673 
Q 3278 3228 3278 2384 
Q 3278 1506 3087 986 
Q 2897 466 2520 194 
Q 2144 -78 1638 -78 
Q 1100 -78 759 220 
Q 419 519 350 1059 
z
M 2653 3081 
Q 2653 3566 2395 3850 
Q 2138 4134 1775 4134 
Q 1400 4134 1122 3828 
Q 844 3522 844 3034 
Q 844 2597 1108 2323 
Q 1372 2050 1759 2050 
Q 2150 2050 2401 2323 
Q 2653 2597 2653 3081 
z
" id="ArialMT-39" transform="scale(0.015625)"/>
       </defs>
       <use xlink:href="#ArialMT-39"/>
      </g>
     </g>
    </g>
    <g id="xtick_11">
     <g id="text_11">
      <!-- 10 -->
      <g style="fill:#262626;" transform="translate(437.950125 476.311062)scale(0.132 -0.132)">
       <use xlink:href="#ArialMT-31"/>
       <use x="55.615234" xlink:href="#ArialMT-30"/>
      </g>
     </g>
    </g>
    <g id="xtick_12">
     <g id="text_12">
      <!-- 11 -->
      <g style="fill:#262626;" transform="translate(475.636875 476.311062)scale(0.132 -0.132)">
       <use xlink:href="#ArialMT-31"/>
       <use x="48.240234" xlink:href="#ArialMT-31"/>
      </g>
     </g>
    </g>
    <g id="xtick_13">
     <g id="text_13">
      <!-- 12 -->
      <g style="fill:#262626;" transform="translate(512.350125 476.311062)scale(0.132 -0.132)">
       <use xlink:href="#ArialMT-31"/>
       <use x="55.615234" xlink:href="#ArialMT-32"/>
      </g>
     </g>
    </g>
    <g id="xtick_14">
     <g id="text_14">
      <!-- 13 -->
      <g style="fill:#262626;" transform="translate(549.550125 476.311062)scale(0.132 -0.132)">
       <use xlink:href="#ArialMT-31"/>
       <use x="55.615234" xlink:href="#ArialMT-33"/>
      </g>
     </g>
    </g>
    <g id="xtick_15">
     <g id="text_15">
      <!-- 14 -->
      <g style="fill:#262626;" transform="translate(586.750125 476.311062)scale(0.132 -0.132)">
       <use xlink:href="#ArialMT-31"/>
       <use x="55.615234" xlink:href="#ArialMT-34"/>
      </g>
     </g>
    </g>
    <g id="xtick_16">
     <g id="text_16">
      <!-- 15 -->
      <g style="fill:#262626;" transform="translate(623.950125 476.311062)scale(0.132 -0.132)">
       <use xlink:href="#ArialMT-31"/>
       <use x="55.615234" xlink:href="#ArialMT-35"/>
      </g>
     </g>
    </g>
    <g id="xtick_17">
     <g id="text_17">
      <!-- 16 -->
      <g style="fill:#262626;" transform="translate(661.150125 476.311062)scale(0.132 -0.132)">
       <use xlink:href="#ArialMT-31"/>
       <use x="55.615234" xlink:href="#ArialMT-36"/>
      </g>
     </g>
    </g>
    <g id="xtick_18">
     <g id="text_18">
      <!-- 17 -->
      <g style="fill:#262626;" transform="translate(698.350125 476.311062)scale(0.132 -0.132)">
       <use xlink:href="#ArialMT-31"/>
       <use x="55.615234" xlink:href="#ArialMT-37"/>
      </g>
     </g>
    </g>
    <g id="xtick_19">
     <g id="text_19">
      <!-- 18 -->
      <g style="fill:#262626;" transform="translate(735.550125 476.311062)scale(0.132 -0.132)">
       <use xlink:href="#ArialMT-31"/>
       <use x="55.615234" xlink:href="#ArialMT-38"/>
      </g>
     </g>
    </g>
    <g id="xtick_20">
     <g id="text_20">
      <!-- 19 -->
      <g style="fill:#262626;" transform="translate(772.750125 476.311062)scale(0.132 -0.132)">
       <use xlink:href="#ArialMT-31"/>
       <use x="55.615234" xlink:href="#ArialMT-39"/>
      </g>
     </g>
    </g>
    <g id="xtick_21">
     <g id="text_21">
      <!-- 20 -->
      <g style="fill:#262626;" transform="translate(809.950125 476.311062)scale(0.132 -0.132)">
       <use xlink:href="#ArialMT-32"/>
       <use x="55.615234" xlink:href="#ArialMT-30"/>
      </g>
     </g>
    </g>
    <g id="xtick_22">
     <g id="text_22">
      <!-- 21 -->
      <g style="fill:#262626;" transform="translate(847.150125 476.311062)scale(0.132 -0.132)">
       <use xlink:href="#ArialMT-32"/>
       <use x="55.615234" xlink:href="#ArialMT-31"/>
      </g>
     </g>
    </g>
    <g id="xtick_23">
     <g id="text_23">
      <!-- 22 -->
      <g style="fill:#262626;" transform="translate(884.350125 476.311062)scale(0.132 -0.132)">
       <use xlink:href="#ArialMT-32"/>
       <use x="55.615234" xlink:href="#ArialMT-32"/>
      </g>
     </g>
    </g>
    <g id="xtick_24">
     <g id="text_24">
      <!-- 23 -->
      <g style="fill:#262626;" transform="translate(921.550125 476.311062)scale(0.132 -0.132)">
       <use xlink:href="#ArialMT-32"/>
       <use x="55.615234" xlink:href="#ArialMT-33"/>
      </g>
     </g>
    </g>
    <g id="text_25">
     <!-- hr -->
     <g style="fill:#262626;" transform="translate(494.689312 493.241812)scale(0.144 -0.144)">
      <defs>
       <path d="M 422 0 
L 422 4581 
L 984 4581 
L 984 2938 
Q 1378 3394 1978 3394 
Q 2347 3394 2619 3248 
Q 2891 3103 3008 2847 
Q 3125 2591 3125 2103 
L 3125 0 
L 2563 0 
L 2563 2103 
Q 2563 2525 2380 2717 
Q 2197 2909 1863 2909 
Q 1613 2909 1392 2779 
Q 1172 2650 1078 2428 
Q 984 2206 984 1816 
L 984 0 
L 422 0 
z
" id="ArialMT-68" transform="scale(0.015625)"/>
       <path d="M 416 0 
L 416 3319 
L 922 3319 
L 922 2816 
Q 1116 3169 1280 3281 
Q 1444 3394 1641 3394 
Q 1925 3394 2219 3213 
L 2025 2691 
Q 1819 2813 1613 2813 
Q 1428 2813 1281 2702 
Q 1134 2591 1072 2394 
Q 978 2094 978 1738 
L 978 0 
L 416 0 
z
" id="ArialMT-72" transform="scale(0.015625)"/>
      </defs>
      <use xlink:href="#ArialMT-68"/>
      <use x="55.615234" xlink:href="#ArialMT-72"/>
     </g>
    </g>
   </g>
   <g id="matplotlib.axis_2">
    <g id="ytick_1">
     <g id="line2d_1">
      <path clip-path="url(#p9d52a54a91)" d="M 54.690563 440.584393 
L 947.490563 440.584393 
" style="fill:none;stroke:#ffffff;stroke-linecap:round;stroke-width:0.8;"/>
     </g>
     <g id="text_26">
      <!-- 0 -->
      <g style="fill:#262626;" transform="translate(39.050125 445.308549)scale(0.132 -0.132)">
       <use xlink:href="#ArialMT-30"/>
      </g>
     </g>
    </g>
    <g id="ytick_2">
     <g id="line2d_2">
      <path clip-path="url(#p9d52a54a91)" d="M 54.690563 374.676986 
L 947.490563 374.676986 
" style="fill:none;stroke:#ffffff;stroke-linecap:round;stroke-width:0.8;"/>
     </g>
     <g id="text_27">
      <!-- 100 -->
      <g style="fill:#262626;" transform="translate(24.36925 379.401142)scale(0.132 -0.132)">
       <use xlink:href="#ArialMT-31"/>
       <use x="55.615234" xlink:href="#ArialMT-30"/>
       <use x="111.230469" xlink:href="#ArialMT-30"/>
      </g>
     </g>
    </g>
    <g id="ytick_3">
     <g id="line2d_3">
      <path clip-path="url(#p9d52a54a91)" d="M 54.690563 308.769579 
L 947.490563 308.769579 
" style="fill:none;stroke:#ffffff;stroke-linecap:round;stroke-width:0.8;"/>
     </g>
     <g id="text_28">
      <!-- 200 -->
      <g style="fill:#262626;" transform="translate(24.36925 313.493735)scale(0.132 -0.132)">
       <use xlink:href="#ArialMT-32"/>
       <use x="55.615234" xlink:href="#ArialMT-30"/>
       <use x="111.230469" xlink:href="#ArialMT-30"/>
      </g>
     </g>
    </g>
    <g id="ytick_4">
     <g id="line2d_4">
      <path clip-path="url(#p9d52a54a91)" d="M 54.690563 242.862172 
L 947.490563 242.862172 
" style="fill:none;stroke:#ffffff;stroke-linecap:round;stroke-width:0.8;"/>
     </g>
     <g id="text_29">
      <!-- 300 -->
      <g style="fill:#262626;" transform="translate(24.36925 247.586328)scale(0.132 -0.132)">
       <use xlink:href="#ArialMT-33"/>
       <use x="55.615234" xlink:href="#ArialMT-30"/>
       <use x="111.230469" xlink:href="#ArialMT-30"/>
      </g>
     </g>
    </g>
    <g id="ytick_5">
     <g id="line2d_5">
      <path clip-path="url(#p9d52a54a91)" d="M 54.690563 176.954765 
L 947.490563 176.954765 
" style="fill:none;stroke:#ffffff;stroke-linecap:round;stroke-width:0.8;"/>
     </g>
     <g id="text_30">
      <!-- 400 -->
      <g style="fill:#262626;" transform="translate(24.36925 181.678922)scale(0.132 -0.132)">
       <use xlink:href="#ArialMT-34"/>
       <use x="55.615234" xlink:href="#ArialMT-30"/>
       <use x="111.230469" xlink:href="#ArialMT-30"/>
      </g>
     </g>
    </g>
    <g id="ytick_6">
     <g id="line2d_6">
      <path clip-path="url(#p9d52a54a91)" d="M 54.690563 111.047359 
L 947.490563 111.047359 
" style="fill:none;stroke:#ffffff;stroke-linecap:round;stroke-width:0.8;"/>
     </g>
     <g id="text_31">
      <!-- 500 -->
      <g style="fill:#262626;" transform="translate(24.36925 115.771515)scale(0.132 -0.132)">
       <use xlink:href="#ArialMT-35"/>
       <use x="55.615234" xlink:href="#ArialMT-30"/>
       <use x="111.230469" xlink:href="#ArialMT-30"/>
      </g>
     </g>
    </g>
    <g id="ytick_7">
     <g id="line2d_7">
      <path clip-path="url(#p9d52a54a91)" d="M 54.690563 45.139952 
L 947.490563 45.139952 
" style="fill:none;stroke:#ffffff;stroke-linecap:round;stroke-width:0.8;"/>
     </g>
     <g id="text_32">
      <!-- 600 -->
      <g style="fill:#262626;" transform="translate(24.36925 49.864108)scale(0.132 -0.132)">
       <use xlink:href="#ArialMT-36"/>
       <use x="55.615234" xlink:href="#ArialMT-30"/>
       <use x="111.230469" xlink:href="#ArialMT-30"/>
      </g>
     </g>
    </g>
    <g id="text_33">
     <!-- Total Bike Rentals -->
     <g style="fill:#262626;" transform="translate(17.50725 298.74525)rotate(-90)scale(0.144 -0.144)">
      <defs>
       <path d="M 1659 0 
L 1659 4041 
L 150 4041 
L 150 4581 
L 3781 4581 
L 3781 4041 
L 2266 4041 
L 2266 0 
L 1659 0 
z
" id="ArialMT-54" transform="scale(0.015625)"/>
       <path d="M 213 1659 
Q 213 2581 725 3025 
Q 1153 3394 1769 3394 
Q 2453 3394 2887 2945 
Q 3322 2497 3322 1706 
Q 3322 1066 3130 698 
Q 2938 331 2570 128 
Q 2203 -75 1769 -75 
Q 1072 -75 642 372 
Q 213 819 213 1659 
z
M 791 1659 
Q 791 1022 1069 705 
Q 1347 388 1769 388 
Q 2188 388 2466 706 
Q 2744 1025 2744 1678 
Q 2744 2294 2464 2611 
Q 2184 2928 1769 2928 
Q 1347 2928 1069 2612 
Q 791 2297 791 1659 
z
" id="ArialMT-6f" transform="scale(0.015625)"/>
       <path d="M 1650 503 
L 1731 6 
Q 1494 -44 1306 -44 
Q 1000 -44 831 53 
Q 663 150 594 308 
Q 525 466 525 972 
L 525 2881 
L 113 2881 
L 113 3319 
L 525 3319 
L 525 4141 
L 1084 4478 
L 1084 3319 
L 1650 3319 
L 1650 2881 
L 1084 2881 
L 1084 941 
Q 1084 700 1114 631 
Q 1144 563 1211 522 
Q 1278 481 1403 481 
Q 1497 481 1650 503 
z
" id="ArialMT-74" transform="scale(0.015625)"/>
       <path d="M 2588 409 
Q 2275 144 1986 34 
Q 1697 -75 1366 -75 
Q 819 -75 525 192 
Q 231 459 231 875 
Q 231 1119 342 1320 
Q 453 1522 633 1644 
Q 813 1766 1038 1828 
Q 1203 1872 1538 1913 
Q 2219 1994 2541 2106 
Q 2544 2222 2544 2253 
Q 2544 2597 2384 2738 
Q 2169 2928 1744 2928 
Q 1347 2928 1158 2789 
Q 969 2650 878 2297 
L 328 2372 
Q 403 2725 575 2942 
Q 747 3159 1072 3276 
Q 1397 3394 1825 3394 
Q 2250 3394 2515 3294 
Q 2781 3194 2906 3042 
Q 3031 2891 3081 2659 
Q 3109 2516 3109 2141 
L 3109 1391 
Q 3109 606 3145 398 
Q 3181 191 3288 0 
L 2700 0 
Q 2613 175 2588 409 
z
M 2541 1666 
Q 2234 1541 1622 1453 
Q 1275 1403 1131 1340 
Q 988 1278 909 1158 
Q 831 1038 831 891 
Q 831 666 1001 516 
Q 1172 366 1500 366 
Q 1825 366 2078 508 
Q 2331 650 2450 897 
Q 2541 1088 2541 1459 
L 2541 1666 
z
" id="ArialMT-61" transform="scale(0.015625)"/>
       <path d="M 409 0 
L 409 4581 
L 972 4581 
L 972 0 
L 409 0 
z
" id="ArialMT-6c" transform="scale(0.015625)"/>
       <path id="ArialMT-20" transform="scale(0.015625)"/>
       <path d="M 469 0 
L 469 4581 
L 2188 4581 
Q 2713 4581 3030 4442 
Q 3347 4303 3526 4014 
Q 3706 3725 3706 3409 
Q 3706 3116 3547 2856 
Q 3388 2597 3066 2438 
Q 3481 2316 3704 2022 
Q 3928 1728 3928 1328 
Q 3928 1006 3792 729 
Q 3656 453 3456 303 
Q 3256 153 2954 76 
Q 2653 0 2216 0 
L 469 0 
z
M 1075 2656 
L 2066 2656 
Q 2469 2656 2644 2709 
Q 2875 2778 2992 2937 
Q 3109 3097 3109 3338 
Q 3109 3566 3000 3739 
Q 2891 3913 2687 3977 
Q 2484 4041 1991 4041 
L 1075 4041 
L 1075 2656 
z
M 1075 541 
L 2216 541 
Q 2509 541 2628 563 
Q 2838 600 2978 687 
Q 3119 775 3209 942 
Q 3300 1109 3300 1328 
Q 3300 1584 3169 1773 
Q 3038 1963 2805 2039 
Q 2572 2116 2134 2116 
L 1075 2116 
L 1075 541 
z
" id="ArialMT-42" transform="scale(0.015625)"/>
       <path d="M 425 3934 
L 425 4581 
L 988 4581 
L 988 3934 
L 425 3934 
z
M 425 0 
L 425 3319 
L 988 3319 
L 988 0 
L 425 0 
z
" id="ArialMT-69" transform="scale(0.015625)"/>
       <path d="M 425 0 
L 425 4581 
L 988 4581 
L 988 1969 
L 2319 3319 
L 3047 3319 
L 1778 2088 
L 3175 0 
L 2481 0 
L 1384 1697 
L 988 1316 
L 988 0 
L 425 0 
z
" id="ArialMT-6b" transform="scale(0.015625)"/>
       <path d="M 2694 1069 
L 3275 997 
Q 3138 488 2766 206 
Q 2394 -75 1816 -75 
Q 1088 -75 661 373 
Q 234 822 234 1631 
Q 234 2469 665 2931 
Q 1097 3394 1784 3394 
Q 2450 3394 2872 2941 
Q 3294 2488 3294 1666 
Q 3294 1616 3291 1516 
L 816 1516 
Q 847 969 1125 678 
Q 1403 388 1819 388 
Q 2128 388 2347 550 
Q 2566 713 2694 1069 
z
M 847 1978 
L 2700 1978 
Q 2663 2397 2488 2606 
Q 2219 2931 1791 2931 
Q 1403 2931 1139 2672 
Q 875 2413 847 1978 
z
" id="ArialMT-65" transform="scale(0.015625)"/>
       <path d="M 503 0 
L 503 4581 
L 2534 4581 
Q 3147 4581 3465 4457 
Q 3784 4334 3975 4021 
Q 4166 3709 4166 3331 
Q 4166 2844 3850 2509 
Q 3534 2175 2875 2084 
Q 3116 1969 3241 1856 
Q 3506 1613 3744 1247 
L 4541 0 
L 3778 0 
L 3172 953 
Q 2906 1366 2734 1584 
Q 2563 1803 2427 1890 
Q 2291 1978 2150 2013 
Q 2047 2034 1813 2034 
L 1109 2034 
L 1109 0 
L 503 0 
z
M 1109 2559 
L 2413 2559 
Q 2828 2559 3062 2645 
Q 3297 2731 3419 2920 
Q 3541 3109 3541 3331 
Q 3541 3656 3305 3865 
Q 3069 4075 2559 4075 
L 1109 4075 
L 1109 2559 
z
" id="ArialMT-52" transform="scale(0.015625)"/>
       <path d="M 422 0 
L 422 3319 
L 928 3319 
L 928 2847 
Q 1294 3394 1984 3394 
Q 2284 3394 2536 3286 
Q 2788 3178 2913 3003 
Q 3038 2828 3088 2588 
Q 3119 2431 3119 2041 
L 3119 0 
L 2556 0 
L 2556 2019 
Q 2556 2363 2490 2533 
Q 2425 2703 2258 2804 
Q 2091 2906 1866 2906 
Q 1506 2906 1245 2678 
Q 984 2450 984 1813 
L 984 0 
L 422 0 
z
" id="ArialMT-6e" transform="scale(0.015625)"/>
       <path d="M 197 991 
L 753 1078 
Q 800 744 1014 566 
Q 1228 388 1613 388 
Q 2000 388 2187 545 
Q 2375 703 2375 916 
Q 2375 1106 2209 1216 
Q 2094 1291 1634 1406 
Q 1016 1563 777 1677 
Q 538 1791 414 1992 
Q 291 2194 291 2438 
Q 291 2659 392 2848 
Q 494 3038 669 3163 
Q 800 3259 1026 3326 
Q 1253 3394 1513 3394 
Q 1903 3394 2198 3281 
Q 2494 3169 2634 2976 
Q 2775 2784 2828 2463 
L 2278 2388 
Q 2241 2644 2061 2787 
Q 1881 2931 1553 2931 
Q 1166 2931 1000 2803 
Q 834 2675 834 2503 
Q 834 2394 903 2306 
Q 972 2216 1119 2156 
Q 1203 2125 1616 2013 
Q 2213 1853 2448 1751 
Q 2684 1650 2818 1456 
Q 2953 1263 2953 975 
Q 2953 694 2789 445 
Q 2625 197 2315 61 
Q 2006 -75 1616 -75 
Q 969 -75 630 194 
Q 291 463 197 991 
z
" id="ArialMT-73" transform="scale(0.015625)"/>
      </defs>
      <use xlink:href="#ArialMT-54"/>
      <use x="49.958984" xlink:href="#ArialMT-6f"/>
      <use x="105.574219" xlink:href="#ArialMT-74"/>
      <use x="133.357422" xlink:href="#ArialMT-61"/>
      <use x="188.972656" xlink:href="#ArialMT-6c"/>
      <use x="211.189453" xlink:href="#ArialMT-20"/>
      <use x="238.972656" xlink:href="#ArialMT-42"/>
      <use x="305.671875" xlink:href="#ArialMT-69"/>
      <use x="327.888672" xlink:href="#ArialMT-6b"/>
      <use x="377.888672" xlink:href="#ArialMT-65"/>
      <use x="433.503906" xlink:href="#ArialMT-20"/>
      <use x="461.287109" xlink:href="#ArialMT-52"/>
      <use x="533.503906" xlink:href="#ArialMT-65"/>
      <use x="589.119141" xlink:href="#ArialMT-6e"/>
      <use x="644.734375" xlink:href="#ArialMT-74"/>
      <use x="672.517578" xlink:href="#ArialMT-61"/>
      <use x="728.132812" xlink:href="#ArialMT-6c"/>
      <use x="750.349609" xlink:href="#ArialMT-73"/>
     </g>
    </g>
   </g>
   <g id="PathCollection_1">
    <defs>
     <path d="M 0 2.819957 
C 0.747861 2.819957 1.465193 2.522828 1.994011 1.994011 
C 2.522828 1.465193 2.819957 0.747861 2.819957 0 
C 2.819957 -0.747861 2.522828 -1.465193 1.994011 -1.994011 
C 1.465193 -2.522828 0.747861 -2.819957 0 -2.819957 
C -0.747861 -2.819957 -1.465193 -2.522828 -1.994011 -1.994011 
C -2.522828 -1.465193 -2.819957 -0.747861 -2.819957 0 
C -2.819957 0.747861 -2.522828 1.465193 -1.994011 1.994011 
C -1.465193 2.522828 -0.747861 2.819957 0 2.819957 
z
" id="m943b0fa8e7" style="stroke:#4c72b0;stroke-width:1.6875;"/>
    </defs>
    <g clip-path="url(#p9d52a54a91)">
     <use style="fill:#4c72b0;stroke:#4c72b0;stroke-width:1.6875;" x="73.290563" xlink:href="#m943b0fa8e7" y="422.522801"/>
     <use style="fill:#4c72b0;stroke:#4c72b0;stroke-width:1.6875;" x="110.490563" xlink:href="#m943b0fa8e7" y="428.628493"/>
     <use style="fill:#4c72b0;stroke:#4c72b0;stroke-width:1.6875;" x="147.690562" xlink:href="#m943b0fa8e7" y="432.152121"/>
     <use style="fill:#4c72b0;stroke:#4c72b0;stroke-width:1.6875;" x="184.890562" xlink:href="#m943b0fa8e7" y="435.903277"/>
     <use style="fill:#4c72b0;stroke:#4c72b0;stroke-width:1.6875;" x="222.090562" xlink:href="#m943b0fa8e7" y="438.487339"/>
     <use style="fill:#4c72b0;stroke:#4c72b0;stroke-width:1.6875;" x="259.290562" xlink:href="#m943b0fa8e7" y="433.531144"/>
     <use style="fill:#4c72b0;stroke:#4c72b0;stroke-width:1.6875;" x="296.490563" xlink:href="#m943b0fa8e7" y="413.699354"/>
     <use style="fill:#4c72b0;stroke:#4c72b0;stroke-width:1.6875;" x="333.690562" xlink:href="#m943b0fa8e7" y="364.533136"/>
     <use style="fill:#4c72b0;stroke:#4c72b0;stroke-width:1.6875;" x="370.890562" xlink:href="#m943b0fa8e7" y="285.591527"/>
     <use style="fill:#4c72b0;stroke:#4c72b0;stroke-width:1.6875;" x="408.090562" xlink:href="#m943b0fa8e7" y="343.689459"/>
     <use style="fill:#4c72b0;stroke:#4c72b0;stroke-width:1.6875;" x="445.290562" xlink:href="#m943b0fa8e7" y="374.533389"/>
     <use style="fill:#4c72b0;stroke:#4c72b0;stroke-width:1.6875;" x="482.490562" xlink:href="#m943b0fa8e7" y="361.145717"/>
     <use style="fill:#4c72b0;stroke:#4c72b0;stroke-width:1.6875;" x="519.690562" xlink:href="#m943b0fa8e7" y="341.243623"/>
     <use style="fill:#4c72b0;stroke:#4c72b0;stroke-width:1.6875;" x="556.890562" xlink:href="#m943b0fa8e7" y="337.420993"/>
     <use style="fill:#4c72b0;stroke:#4c72b0;stroke-width:1.6875;" x="594.090562" xlink:href="#m943b0fa8e7" y="343.169584"/>
     <use style="fill:#4c72b0;stroke:#4c72b0;stroke-width:1.6875;" x="631.290562" xlink:href="#m943b0fa8e7" y="337.995852"/>
     <use style="fill:#4c72b0;stroke:#4c72b0;stroke-width:1.6875;" x="668.490562" xlink:href="#m943b0fa8e7" y="320.425358"/>
     <use style="fill:#4c72b0;stroke:#4c72b0;stroke-width:1.6875;" x="705.690562" xlink:href="#m943b0fa8e7" y="266.603404"/>
     <use style="fill:#4c72b0;stroke:#4c72b0;stroke-width:1.6875;" x="742.890562" xlink:href="#m943b0fa8e7" y="282.736153"/>
     <use style="fill:#4c72b0;stroke:#4c72b0;stroke-width:1.6875;" x="780.090562" xlink:href="#m943b0fa8e7" y="331.335543"/>
     <use style="fill:#4c72b0;stroke:#4c72b0;stroke-width:1.6875;" x="817.290562" xlink:href="#m943b0fa8e7" y="362.919837"/>
     <use style="fill:#4c72b0;stroke:#4c72b0;stroke-width:1.6875;" x="854.490562" xlink:href="#m943b0fa8e7" y="380.180254"/>
     <use style="fill:#4c72b0;stroke:#4c72b0;stroke-width:1.6875;" x="891.690562" xlink:href="#m943b0fa8e7" y="395.035051"/>
     <use style="fill:#4c72b0;stroke:#4c72b0;stroke-width:1.6875;" x="928.890562" xlink:href="#m943b0fa8e7" y="411.314181"/>
    </g>
   </g>
   <g id="line2d_8">
    <path clip-path="url(#p9d52a54a91)" d="M 73.290563 422.522801 
L 110.490563 428.628493 
L 147.690562 432.152121 
L 184.890562 435.903277 
L 222.090562 438.487339 
L 259.290562 433.531144 
L 296.490563 413.699354 
L 333.690562 364.533136 
L 370.890562 285.591527 
L 408.090562 343.689459 
L 445.290562 374.533389 
L 482.490562 361.145717 
L 519.690562 341.243623 
L 556.890562 337.420993 
L 594.090562 343.169584 
L 631.290562 337.995852 
L 668.490562 320.425358 
L 705.690562 266.603404 
L 742.890562 282.736153 
L 780.090562 331.335543 
L 817.290562 362.919837 
L 854.490562 380.180254 
L 891.690562 395.035051 
L 928.890562 411.314181 
" style="fill:none;stroke:#4c72b0;stroke-linecap:round;stroke-width:2.25;"/>
   </g>
   <g id="line2d_9">
    <path clip-path="url(#p9d52a54a91)" d="M 73.290563 424.515945 
L 73.290563 420.40858 
" style="fill:none;stroke:#4c72b0;stroke-linecap:round;stroke-width:4.5;"/>
   </g>
   <g id="line2d_10">
    <path clip-path="url(#p9d52a54a91)" d="M 110.490563 430.494728 
L 110.490563 426.813632 
" style="fill:none;stroke:#4c72b0;stroke-linecap:round;stroke-width:4.5;"/>
   </g>
   <g id="line2d_11">
    <path clip-path="url(#p9d52a54a91)" d="M 147.690562 433.567386 
L 147.690562 430.628303 
" style="fill:none;stroke:#4c72b0;stroke-linecap:round;stroke-width:4.5;"/>
   </g>
   <g id="line2d_12">
    <path clip-path="url(#p9d52a54a91)" d="M 184.890562 436.727119 
L 184.890562 434.910441 
" style="fill:none;stroke:#4c72b0;stroke-linecap:round;stroke-width:4.5;"/>
   </g>
   <g id="line2d_13">
    <path clip-path="url(#p9d52a54a91)" d="M 222.090562 438.795477 
L 222.090562 438.119284 
" style="fill:none;stroke:#4c72b0;stroke-linecap:round;stroke-width:4.5;"/>
   </g>
   <g id="line2d_14">
    <path clip-path="url(#p9d52a54a91)" d="M 259.290562 434.359997 
L 259.290562 432.70971 
" style="fill:none;stroke:#4c72b0;stroke-linecap:round;stroke-width:4.5;"/>
   </g>
   <g id="line2d_15">
    <path clip-path="url(#p9d52a54a91)" d="M 296.490563 417.19652 
L 296.490563 410.177844 
" style="fill:none;stroke:#4c72b0;stroke-linecap:round;stroke-width:4.5;"/>
   </g>
   <g id="line2d_16">
    <path clip-path="url(#p9d52a54a91)" d="M 333.690562 373.572945 
L 333.690562 354.215866 
" style="fill:none;stroke:#4c72b0;stroke-linecap:round;stroke-width:4.5;"/>
   </g>
   <g id="line2d_17">
    <path clip-path="url(#p9d52a54a91)" d="M 370.890562 304.316042 
L 370.890562 266.634955 
" style="fill:none;stroke:#4c72b0;stroke-linecap:round;stroke-width:4.5;"/>
   </g>
   <g id="line2d_18">
    <path clip-path="url(#p9d52a54a91)" d="M 408.090562 351.381111 
L 408.090562 336.008116 
" style="fill:none;stroke:#4c72b0;stroke-linecap:round;stroke-width:4.5;"/>
   </g>
   <g id="line2d_19">
    <path clip-path="url(#p9d52a54a91)" d="M 445.290562 379.772843 
L 445.290562 368.516852 
" style="fill:none;stroke:#4c72b0;stroke-linecap:round;stroke-width:4.5;"/>
   </g>
   <g id="line2d_20">
    <path clip-path="url(#p9d52a54a91)" d="M 482.490562 367.570124 
L 482.490562 353.287179 
" style="fill:none;stroke:#4c72b0;stroke-linecap:round;stroke-width:4.5;"/>
   </g>
   <g id="line2d_21">
    <path clip-path="url(#p9d52a54a91)" d="M 519.690562 349.54283 
L 519.690562 331.994251 
" style="fill:none;stroke:#4c72b0;stroke-linecap:round;stroke-width:4.5;"/>
   </g>
   <g id="line2d_22">
    <path clip-path="url(#p9d52a54a91)" d="M 556.890562 346.889416 
L 556.890562 327.301552 
" style="fill:none;stroke:#4c72b0;stroke-linecap:round;stroke-width:4.5;"/>
   </g>
   <g id="line2d_23">
    <path clip-path="url(#p9d52a54a91)" d="M 594.090562 352.475069 
L 594.090562 332.942768 
" style="fill:none;stroke:#4c72b0;stroke-linecap:round;stroke-width:4.5;"/>
   </g>
   <g id="line2d_24">
    <path clip-path="url(#p9d52a54a91)" d="M 631.290562 348.222943 
L 631.290562 327.702214 
" style="fill:none;stroke:#4c72b0;stroke-linecap:round;stroke-width:4.5;"/>
   </g>
   <g id="line2d_25">
    <path clip-path="url(#p9d52a54a91)" d="M 668.490562 331.506178 
L 668.490562 309.652593 
" style="fill:none;stroke:#4c72b0;stroke-linecap:round;stroke-width:4.5;"/>
   </g>
   <g id="line2d_26">
    <path clip-path="url(#p9d52a54a91)" d="M 705.690562 281.602619 
L 705.690562 251.07083 
" style="fill:none;stroke:#4c72b0;stroke-linecap:round;stroke-width:4.5;"/>
   </g>
   <g id="line2d_27">
    <path clip-path="url(#p9d52a54a91)" d="M 742.890562 298.909465 
L 742.890562 267.225944 
" style="fill:none;stroke:#4c72b0;stroke-linecap:round;stroke-width:4.5;"/>
   </g>
   <g id="line2d_28">
    <path clip-path="url(#p9d52a54a91)" d="M 780.090562 341.743787 
L 780.090562 320.259071 
" style="fill:none;stroke:#4c72b0;stroke-linecap:round;stroke-width:4.5;"/>
   </g>
   <g id="line2d_29">
    <path clip-path="url(#p9d52a54a91)" d="M 817.290562 369.999574 
L 817.290562 355.440628 
" style="fill:none;stroke:#4c72b0;stroke-linecap:round;stroke-width:4.5;"/>
   </g>
   <g id="line2d_30">
    <path clip-path="url(#p9d52a54a91)" d="M 854.490562 385.68517 
L 854.490562 374.460773 
" style="fill:none;stroke:#4c72b0;stroke-linecap:round;stroke-width:4.5;"/>
   </g>
   <g id="line2d_31">
    <path clip-path="url(#p9d52a54a91)" d="M 891.690562 398.876996 
L 891.690562 390.626487 
" style="fill:none;stroke:#4c72b0;stroke-linecap:round;stroke-width:4.5;"/>
   </g>
   <g id="line2d_32">
    <path clip-path="url(#p9d52a54a91)" d="M 928.890562 413.767493 
L 928.890562 408.7026 
" style="fill:none;stroke:#4c72b0;stroke-linecap:round;stroke-width:4.5;"/>
   </g>
   <g id="PathCollection_2">
    <defs>
     <path d="M 0 2.819957 
C 0.747861 2.819957 1.465193 2.522828 1.994011 1.994011 
C 2.522828 1.465193 2.819957 0.747861 2.819957 0 
C 2.819957 -0.747861 2.522828 -1.465193 1.994011 -1.994011 
C 1.465193 -2.522828 0.747861 -2.819957 0 -2.819957 
C -0.747861 -2.819957 -1.465193 -2.522828 -1.994011 -1.994011 
C -2.522828 -1.465193 -2.819957 -0.747861 -2.819957 0 
C -2.819957 0.747861 -2.522828 1.465193 -1.994011 1.994011 
C -1.465193 2.522828 -0.747861 2.819957 0 2.819957 
z
" id="m5b57d87eec" style="stroke:#dd8452;stroke-width:1.6875;"/>
    </defs>
    <g clip-path="url(#p9d52a54a91)">
     <use style="fill:#dd8452;stroke:#dd8452;stroke-width:1.6875;" x="73.290563" xlink:href="#m5b57d87eec" y="403.121047"/>
     <use style="fill:#dd8452;stroke:#dd8452;stroke-width:1.6875;" x="110.490563" xlink:href="#m5b57d87eec" y="417.369941"/>
     <use style="fill:#dd8452;stroke:#dd8452;stroke-width:1.6875;" x="147.690562" xlink:href="#m5b57d87eec" y="425.174954"/>
     <use style="fill:#dd8452;stroke:#dd8452;stroke-width:1.6875;" x="184.890562" xlink:href="#m5b57d87eec" y="433.037632"/>
     <use style="fill:#dd8452;stroke:#dd8452;stroke-width:1.6875;" x="222.090562" xlink:href="#m5b57d87eec" y="436.49081"/>
     <use style="fill:#dd8452;stroke:#dd8452;stroke-width:1.6875;" x="259.290562" xlink:href="#m5b57d87eec" y="427.950339"/>
     <use style="fill:#dd8452;stroke:#dd8452;stroke-width:1.6875;" x="296.490563" xlink:href="#m5b57d87eec" y="388.470976"/>
     <use style="fill:#dd8452;stroke:#dd8452;stroke-width:1.6875;" x="333.690562" xlink:href="#m5b57d87eec" y="294.610232"/>
     <use style="fill:#dd8452;stroke:#dd8452;stroke-width:1.6875;" x="370.890562" xlink:href="#m5b57d87eec" y="190.046699"/>
     <use style="fill:#dd8452;stroke:#dd8452;stroke-width:1.6875;" x="408.090562" xlink:href="#m5b57d87eec" y="286.371806"/>
     <use style="fill:#dd8452;stroke:#dd8452;stroke-width:1.6875;" x="445.290562" xlink:href="#m5b57d87eec" y="315.507179"/>
     <use style="fill:#dd8452;stroke:#dd8452;stroke-width:1.6875;" x="482.490562" xlink:href="#m5b57d87eec" y="288.048147"/>
     <use style="fill:#dd8452;stroke:#dd8452;stroke-width:1.6875;" x="519.690562" xlink:href="#m5b57d87eec" y="257.003609"/>
     <use style="fill:#dd8452;stroke:#dd8452;stroke-width:1.6875;" x="556.890562" xlink:href="#m5b57d87eec" y="254.245528"/>
     <use style="fill:#dd8452;stroke:#dd8452;stroke-width:1.6875;" x="594.090562" xlink:href="#m5b57d87eec" y="265.417549"/>
     <use style="fill:#dd8452;stroke:#dd8452;stroke-width:1.6875;" x="631.290562" xlink:href="#m5b57d87eec" y="256.537959"/>
     <use style="fill:#dd8452;stroke:#dd8452;stroke-width:1.6875;" x="668.490562" xlink:href="#m5b57d87eec" y="211.946584"/>
     <use style="fill:#dd8452;stroke:#dd8452;stroke-width:1.6875;" x="705.690562" xlink:href="#m5b57d87eec" y="98.625245"/>
     <use style="fill:#dd8452;stroke:#dd8452;stroke-width:1.6875;" x="742.890562" xlink:href="#m5b57d87eec" y="122.136996"/>
     <use style="fill:#dd8452;stroke:#dd8452;stroke-width:1.6875;" x="780.090562" xlink:href="#m5b57d87eec" y="204.198881"/>
     <use style="fill:#dd8452;stroke:#dd8452;stroke-width:1.6875;" x="817.290562" xlink:href="#m5b57d87eec" y="271.213103"/>
     <use style="fill:#dd8452;stroke:#dd8452;stroke-width:1.6875;" x="854.490562" xlink:href="#m5b57d87eec" y="314.335889"/>
     <use style="fill:#dd8452;stroke:#dd8452;stroke-width:1.6875;" x="891.690562" xlink:href="#m5b57d87eec" y="344.284358"/>
     <use style="fill:#dd8452;stroke:#dd8452;stroke-width:1.6875;" x="928.890562" xlink:href="#m5b57d87eec" y="377.324028"/>
    </g>
   </g>
   <g id="line2d_33">
    <path clip-path="url(#p9d52a54a91)" d="M 73.290563 403.121047 
L 110.490563 417.369941 
L 147.690562 425.174954 
L 184.890562 433.037632 
L 222.090562 436.49081 
L 259.290562 427.950339 
L 296.490563 388.470976 
L 333.690562 294.610232 
L 370.890562 190.046699 
L 408.090562 286.371806 
L 445.290562 315.507179 
L 482.490562 288.048147 
L 519.690562 257.003609 
L 556.890562 254.245528 
L 594.090562 265.417549 
L 631.290562 256.537959 
L 668.490562 211.946584 
L 705.690562 98.625245 
L 742.890562 122.136996 
L 780.090562 204.198881 
L 817.290562 271.213103 
L 854.490562 314.335889 
L 891.690562 344.284358 
L 928.890562 377.324028 
" style="fill:none;stroke:#dd8452;stroke-linecap:round;stroke-width:2.25;"/>
   </g>
   <g id="line2d_34">
    <path clip-path="url(#p9d52a54a91)" d="M 73.290563 407.025523 
L 73.290563 399.144663 
" style="fill:none;stroke:#dd8452;stroke-linecap:round;stroke-width:4.5;"/>
   </g>
   <g id="line2d_35">
    <path clip-path="url(#p9d52a54a91)" d="M 110.490563 420.443411 
L 110.490563 414.109853 
" style="fill:none;stroke:#dd8452;stroke-linecap:round;stroke-width:4.5;"/>
   </g>
   <g id="line2d_36">
    <path clip-path="url(#p9d52a54a91)" d="M 147.690562 427.629557 
L 147.690562 422.889418 
" style="fill:none;stroke:#dd8452;stroke-linecap:round;stroke-width:4.5;"/>
   </g>
   <g id="line2d_37">
    <path clip-path="url(#p9d52a54a91)" d="M 184.890562 434.156972 
L 184.890562 431.886063 
" style="fill:none;stroke:#dd8452;stroke-linecap:round;stroke-width:4.5;"/>
   </g>
   <g id="line2d_38">
    <path clip-path="url(#p9d52a54a91)" d="M 222.090562 436.857054 
L 222.090562 436.088043 
" style="fill:none;stroke:#dd8452;stroke-linecap:round;stroke-width:4.5;"/>
   </g>
   <g id="line2d_39">
    <path clip-path="url(#p9d52a54a91)" d="M 259.290562 428.96254 
L 259.290562 426.952364 
" style="fill:none;stroke:#dd8452;stroke-linecap:round;stroke-width:4.5;"/>
   </g>
   <g id="line2d_40">
    <path clip-path="url(#p9d52a54a91)" d="M 296.490563 393.145566 
L 296.490563 384.025271 
" style="fill:none;stroke:#dd8452;stroke-linecap:round;stroke-width:4.5;"/>
   </g>
   <g id="line2d_41">
    <path clip-path="url(#p9d52a54a91)" d="M 333.690562 308.859306 
L 333.690562 279.715517 
" style="fill:none;stroke:#dd8452;stroke-linecap:round;stroke-width:4.5;"/>
   </g>
   <g id="line2d_42">
    <path clip-path="url(#p9d52a54a91)" d="M 370.890562 212.015894 
L 370.890562 169.239032 
" style="fill:none;stroke:#dd8452;stroke-linecap:round;stroke-width:4.5;"/>
   </g>
   <g id="line2d_43">
    <path clip-path="url(#p9d52a54a91)" d="M 408.090562 294.031393 
L 408.090562 277.434099 
" style="fill:none;stroke:#dd8452;stroke-linecap:round;stroke-width:4.5;"/>
   </g>
   <g id="line2d_44">
    <path clip-path="url(#p9d52a54a91)" d="M 445.290562 324.881074 
L 445.290562 305.434181 
" style="fill:none;stroke:#dd8452;stroke-linecap:round;stroke-width:4.5;"/>
   </g>
   <g id="line2d_45">
    <path clip-path="url(#p9d52a54a91)" d="M 482.490562 300.005148 
L 482.490562 274.550919 
" style="fill:none;stroke:#dd8452;stroke-linecap:round;stroke-width:4.5;"/>
   </g>
   <g id="line2d_46">
    <path clip-path="url(#p9d52a54a91)" d="M 519.690562 271.577653 
L 519.690562 241.535159 
" style="fill:none;stroke:#dd8452;stroke-linecap:round;stroke-width:4.5;"/>
   </g>
   <g id="line2d_47">
    <path clip-path="url(#p9d52a54a91)" d="M 556.890562 269.105857 
L 556.890562 239.072228 
" style="fill:none;stroke:#dd8452;stroke-linecap:round;stroke-width:4.5;"/>
   </g>
   <g id="line2d_48">
    <path clip-path="url(#p9d52a54a91)" d="M 594.090562 279.730202 
L 594.090562 251.71651 
" style="fill:none;stroke:#dd8452;stroke-linecap:round;stroke-width:4.5;"/>
   </g>
   <g id="line2d_49">
    <path clip-path="url(#p9d52a54a91)" d="M 631.290562 270.63301 
L 631.290562 242.370822 
" style="fill:none;stroke:#dd8452;stroke-linecap:round;stroke-width:4.5;"/>
   </g>
   <g id="line2d_50">
    <path clip-path="url(#p9d52a54a91)" d="M 668.490562 225.038517 
L 668.490562 199.291018 
" style="fill:none;stroke:#dd8452;stroke-linecap:round;stroke-width:4.5;"/>
   </g>
   <g id="line2d_51">
    <path clip-path="url(#p9d52a54a91)" d="M 705.690562 117.232088 
L 705.690562 79.46983 
" style="fill:none;stroke:#dd8452;stroke-linecap:round;stroke-width:4.5;"/>
   </g>
   <g id="line2d_52">
    <path clip-path="url(#p9d52a54a91)" d="M 742.890562 141.247995 
L 742.890562 102.939762 
" style="fill:none;stroke:#dd8452;stroke-linecap:round;stroke-width:4.5;"/>
   </g>
   <g id="line2d_53">
    <path clip-path="url(#p9d52a54a91)" d="M 780.090562 218.555234 
L 780.090562 190.432741 
" style="fill:none;stroke:#dd8452;stroke-linecap:round;stroke-width:4.5;"/>
   </g>
   <g id="line2d_54">
    <path clip-path="url(#p9d52a54a91)" d="M 817.290562 281.877924 
L 817.290562 261.085212 
" style="fill:none;stroke:#dd8452;stroke-linecap:round;stroke-width:4.5;"/>
   </g>
   <g id="line2d_55">
    <path clip-path="url(#p9d52a54a91)" d="M 854.490562 322.19893 
L 854.490562 306.83525 
" style="fill:none;stroke:#dd8452;stroke-linecap:round;stroke-width:4.5;"/>
   </g>
   <g id="line2d_56">
    <path clip-path="url(#p9d52a54a91)" d="M 891.690562 350.130506 
L 891.690562 338.088883 
" style="fill:none;stroke:#dd8452;stroke-linecap:round;stroke-width:4.5;"/>
   </g>
   <g id="line2d_57">
    <path clip-path="url(#p9d52a54a91)" d="M 928.890562 381.716094 
L 928.890562 372.784834 
" style="fill:none;stroke:#dd8452;stroke-linecap:round;stroke-width:4.5;"/>
   </g>
   <g id="patch_3">
    <path d="M 54.690563 458.56275 
L 54.690563 23.68275 
" style="fill:none;stroke:#ffffff;stroke-linecap:square;stroke-linejoin:miter;"/>
   </g>
   <g id="patch_4">
    <path d="M 947.490563 458.56275 
L 947.490563 23.68275 
" style="fill:none;stroke:#ffffff;stroke-linecap:square;stroke-linejoin:miter;"/>
   </g>
   <g id="patch_5">
    <path d="M 54.690563 458.56275 
L 947.490562 458.56275 
" style="fill:none;stroke:#ffffff;stroke-linecap:square;stroke-linejoin:miter;"/>
   </g>
   <g id="patch_6">
    <path d="M 54.690563 23.68275 
L 947.490562 23.68275 
" style="fill:none;stroke:#ffffff;stroke-linecap:square;stroke-linejoin:miter;"/>
   </g>
   <g id="PathCollection_3">
    <defs>
     <path d="M 0 2.819957 
C 0.747861 2.819957 1.465193 2.522828 1.994011 1.994011 
C 2.522828 1.465193 2.819957 0.747861 2.819957 0 
C 2.819957 -0.747861 2.522828 -1.465193 1.994011 -1.994011 
C 1.465193 -2.522828 0.747861 -2.819957 0 -2.819957 
C -0.747861 -2.819957 -1.465193 -2.522828 -1.994011 -1.994011 
C -2.522828 -1.465193 -2.819957 -0.747861 -2.819957 0 
C -2.819957 0.747861 -2.522828 1.465193 -1.994011 1.994011 
C -1.465193 2.522828 -0.747861 2.819957 0 2.819957 
z
" id="m8e98315992" style="stroke:#55a868;stroke-width:1.6875;"/>
    </defs>
    <g clip-path="url(#p9d52a54a91)">
     <use style="fill:#55a868;stroke:#55a868;stroke-width:1.6875;" x="73.290563" xlink:href="#m8e98315992" y="391.869303"/>
     <use style="fill:#55a868;stroke:#55a868;stroke-width:1.6875;" x="110.490563" xlink:href="#m8e98315992" y="411.769391"/>
     <use style="fill:#55a868;stroke:#55a868;stroke-width:1.6875;" x="147.690562" xlink:href="#m8e98315992" y="420.330267"/>
     <use style="fill:#55a868;stroke:#55a868;stroke-width:1.6875;" x="184.890562" xlink:href="#m8e98315992" y="430.202204"/>
     <use style="fill:#55a868;stroke:#55a868;stroke-width:1.6875;" x="222.090562" xlink:href="#m8e98315992" y="435.153199"/>
     <use style="fill:#55a868;stroke:#55a868;stroke-width:1.6875;" x="259.290562" xlink:href="#m8e98315992" y="423.148888"/>
     <use style="fill:#55a868;stroke:#55a868;stroke-width:1.6875;" x="296.490563" xlink:href="#m8e98315992" y="373.809969"/>
     <use style="fill:#55a868;stroke:#55a868;stroke-width:1.6875;" x="333.690562" xlink:href="#m8e98315992" y="258.28731"/>
     <use style="fill:#55a868;stroke:#55a868;stroke-width:1.6875;" x="370.890562" xlink:href="#m8e98315992" y="162.91789"/>
     <use style="fill:#55a868;stroke:#55a868;stroke-width:1.6875;" x="408.090562" xlink:href="#m8e98315992" y="272.56608"/>
     <use style="fill:#55a868;stroke:#55a868;stroke-width:1.6875;" x="445.290562" xlink:href="#m8e98315992" y="298.936054"/>
     <use style="fill:#55a868;stroke:#55a868;stroke-width:1.6875;" x="482.490562" xlink:href="#m8e98315992" y="274.697553"/>
     <use style="fill:#55a868;stroke:#55a868;stroke-width:1.6875;" x="519.690562" xlink:href="#m8e98315992" y="242.658841"/>
     <use style="fill:#55a868;stroke:#55a868;stroke-width:1.6875;" x="556.890562" xlink:href="#m8e98315992" y="245.470423"/>
     <use style="fill:#55a868;stroke:#55a868;stroke-width:1.6875;" x="594.090562" xlink:href="#m8e98315992" y="254.571254"/>
     <use style="fill:#55a868;stroke:#55a868;stroke-width:1.6875;" x="631.290562" xlink:href="#m8e98315992" y="250.501121"/>
     <use style="fill:#55a868;stroke:#55a868;stroke-width:1.6875;" x="668.490562" xlink:href="#m8e98315992" y="196.881239"/>
     <use style="fill:#55a868;stroke:#55a868;stroke-width:1.6875;" x="705.690562" xlink:href="#m8e98315992" y="63.502877"/>
     <use style="fill:#55a868;stroke:#55a868;stroke-width:1.6875;" x="742.890562" xlink:href="#m8e98315992" y="79.926374"/>
     <use style="fill:#55a868;stroke:#55a868;stroke-width:1.6875;" x="780.090562" xlink:href="#m8e98315992" y="164.326624"/>
     <use style="fill:#55a868;stroke:#55a868;stroke-width:1.6875;" x="817.290562" xlink:href="#m8e98315992" y="234.385845"/>
     <use style="fill:#55a868;stroke:#55a868;stroke-width:1.6875;" x="854.490562" xlink:href="#m8e98315992" y="281.465585"/>
     <use style="fill:#55a868;stroke:#55a868;stroke-width:1.6875;" x="891.690562" xlink:href="#m8e98315992" y="319.286568"/>
     <use style="fill:#55a868;stroke:#55a868;stroke-width:1.6875;" x="928.890562" xlink:href="#m8e98315992" y="359.571149"/>
    </g>
   </g>
   <g id="line2d_58">
    <path clip-path="url(#p9d52a54a91)" d="M 73.290563 391.869303 
L 110.490563 411.769391 
L 147.690562 420.330267 
L 184.890562 430.202204 
L 222.090562 435.153199 
L 259.290562 423.148888 
L 296.490563 373.809969 
L 333.690562 258.28731 
L 370.890562 162.91789 
L 408.090562 272.56608 
L 445.290562 298.936054 
L 482.490562 274.697553 
L 519.690562 242.658841 
L 556.890562 245.470423 
L 594.090562 254.571254 
L 631.290562 250.501121 
L 668.490562 196.881239 
L 705.690562 63.502877 
L 742.890562 79.926374 
L 780.090562 164.326624 
L 817.290562 234.385845 
L 854.490562 281.465585 
L 891.690562 319.286568 
L 928.890562 359.571149 
" style="fill:none;stroke:#55a868;stroke-linecap:round;stroke-width:2.25;"/>
   </g>
   <g id="line2d_59">
    <path clip-path="url(#p9d52a54a91)" d="M 73.290563 395.908511 
L 73.290563 387.135512 
" style="fill:none;stroke:#55a868;stroke-linecap:round;stroke-width:4.5;"/>
   </g>
   <g id="line2d_60">
    <path clip-path="url(#p9d52a54a91)" d="M 110.490563 415.388274 
L 110.490563 408.065288 
" style="fill:none;stroke:#55a868;stroke-linecap:round;stroke-width:4.5;"/>
   </g>
   <g id="line2d_61">
    <path clip-path="url(#p9d52a54a91)" d="M 147.690562 423.268639 
L 147.690562 416.852588 
" style="fill:none;stroke:#55a868;stroke-linecap:round;stroke-width:4.5;"/>
   </g>
   <g id="line2d_62">
    <path clip-path="url(#p9d52a54a91)" d="M 184.890562 431.644726 
L 184.890562 428.756493 
" style="fill:none;stroke:#55a868;stroke-linecap:round;stroke-width:4.5;"/>
   </g>
   <g id="line2d_63">
    <path clip-path="url(#p9d52a54a91)" d="M 222.090562 435.52688 
L 222.090562 434.740837 
" style="fill:none;stroke:#55a868;stroke-linecap:round;stroke-width:4.5;"/>
   </g>
   <g id="line2d_64">
    <path clip-path="url(#p9d52a54a91)" d="M 259.290562 424.389938 
L 259.290562 421.95762 
" style="fill:none;stroke:#55a868;stroke-linecap:round;stroke-width:4.5;"/>
   </g>
   <g id="line2d_65">
    <path clip-path="url(#p9d52a54a91)" d="M 296.490563 379.428487 
L 296.490563 368.287051 
" style="fill:none;stroke:#55a868;stroke-linecap:round;stroke-width:4.5;"/>
   </g>
   <g id="line2d_66">
    <path clip-path="url(#p9d52a54a91)" d="M 333.690562 273.519984 
L 333.690562 241.017729 
" style="fill:none;stroke:#55a868;stroke-linecap:round;stroke-width:4.5;"/>
   </g>
   <g id="line2d_67">
    <path clip-path="url(#p9d52a54a91)" d="M 370.890562 184.109926 
L 370.890562 142.093866 
" style="fill:none;stroke:#55a868;stroke-linecap:round;stroke-width:4.5;"/>
   </g>
   <g id="line2d_68">
    <path clip-path="url(#p9d52a54a91)" d="M 408.090562 279.094156 
L 408.090562 265.448518 
" style="fill:none;stroke:#55a868;stroke-linecap:round;stroke-width:4.5;"/>
   </g>
   <g id="line2d_69">
    <path clip-path="url(#p9d52a54a91)" d="M 445.290562 308.597273 
L 445.290562 288.959145 
" style="fill:none;stroke:#55a868;stroke-linecap:round;stroke-width:4.5;"/>
   </g>
   <g id="line2d_70">
    <path clip-path="url(#p9d52a54a91)" d="M 482.490562 286.403918 
L 482.490562 262.931065 
" style="fill:none;stroke:#55a868;stroke-linecap:round;stroke-width:4.5;"/>
   </g>
   <g id="line2d_71">
    <path clip-path="url(#p9d52a54a91)" d="M 519.690562 255.262581 
L 519.690562 229.620831 
" style="fill:none;stroke:#55a868;stroke-linecap:round;stroke-width:4.5;"/>
   </g>
   <g id="line2d_72">
    <path clip-path="url(#p9d52a54a91)" d="M 556.890562 258.776707 
L 556.890562 232.78202 
" style="fill:none;stroke:#55a868;stroke-linecap:round;stroke-width:4.5;"/>
   </g>
   <g id="line2d_73">
    <path clip-path="url(#p9d52a54a91)" d="M 594.090562 267.085335 
L 594.090562 241.234732 
" style="fill:none;stroke:#55a868;stroke-linecap:round;stroke-width:4.5;"/>
   </g>
   <g id="line2d_74">
    <path clip-path="url(#p9d52a54a91)" d="M 631.290562 262.189957 
L 631.290562 238.517454 
" style="fill:none;stroke:#55a868;stroke-linecap:round;stroke-width:4.5;"/>
   </g>
   <g id="line2d_75">
    <path clip-path="url(#p9d52a54a91)" d="M 668.490562 208.534667 
L 668.490562 185.272946 
" style="fill:none;stroke:#55a868;stroke-linecap:round;stroke-width:4.5;"/>
   </g>
   <g id="line2d_76">
    <path clip-path="url(#p9d52a54a91)" d="M 705.690562 82.983336 
L 705.690562 43.450023 
" style="fill:none;stroke:#55a868;stroke-linecap:round;stroke-width:4.5;"/>
   </g>
   <g id="line2d_77">
    <path clip-path="url(#p9d52a54a91)" d="M 742.890562 97.920683 
L 742.890562 62.05181 
" style="fill:none;stroke:#55a868;stroke-linecap:round;stroke-width:4.5;"/>
   </g>
   <g id="line2d_78">
    <path clip-path="url(#p9d52a54a91)" d="M 780.090562 176.949214 
L 780.090562 150.922221 
" style="fill:none;stroke:#55a868;stroke-linecap:round;stroke-width:4.5;"/>
   </g>
   <g id="line2d_79">
    <path clip-path="url(#p9d52a54a91)" d="M 817.290562 243.51499 
L 817.290562 224.911127 
" style="fill:none;stroke:#55a868;stroke-linecap:round;stroke-width:4.5;"/>
   </g>
   <g id="line2d_80">
    <path clip-path="url(#p9d52a54a91)" d="M 854.490562 289.048197 
L 854.490562 274.25921 
" style="fill:none;stroke:#55a868;stroke-linecap:round;stroke-width:4.5;"/>
   </g>
   <g id="line2d_81">
    <path clip-path="url(#p9d52a54a91)" d="M 891.690562 324.905175 
L 891.690562 313.410236 
" style="fill:none;stroke:#55a868;stroke-linecap:round;stroke-width:4.5;"/>
   </g>
   <g id="line2d_82">
    <path clip-path="url(#p9d52a54a91)" d="M 928.890562 363.798034 
L 928.890562 355.231393 
" style="fill:none;stroke:#55a868;stroke-linecap:round;stroke-width:4.5;"/>
   </g>
   <g id="text_34">
    <!-- Season wise hourly distribution of bike rentals -->
    <g style="fill:#262626;" transform="translate(355.021687 17.68275)scale(0.144 -0.144)">
     <defs>
      <path d="M 288 1472 
L 859 1522 
Q 900 1178 1048 958 
Q 1197 738 1509 602 
Q 1822 466 2213 466 
Q 2559 466 2825 569 
Q 3091 672 3220 851 
Q 3350 1031 3350 1244 
Q 3350 1459 3225 1620 
Q 3100 1781 2813 1891 
Q 2628 1963 1997 2114 
Q 1366 2266 1113 2400 
Q 784 2572 623 2826 
Q 463 3081 463 3397 
Q 463 3744 659 4045 
Q 856 4347 1234 4503 
Q 1613 4659 2075 4659 
Q 2584 4659 2973 4495 
Q 3363 4331 3572 4012 
Q 3781 3694 3797 3291 
L 3216 3247 
Q 3169 3681 2898 3903 
Q 2628 4125 2100 4125 
Q 1550 4125 1298 3923 
Q 1047 3722 1047 3438 
Q 1047 3191 1225 3031 
Q 1400 2872 2139 2705 
Q 2878 2538 3153 2413 
Q 3553 2228 3743 1945 
Q 3934 1663 3934 1294 
Q 3934 928 3725 604 
Q 3516 281 3123 101 
Q 2731 -78 2241 -78 
Q 1619 -78 1198 103 
Q 778 284 539 648 
Q 300 1013 288 1472 
z
" id="ArialMT-53" transform="scale(0.015625)"/>
      <path d="M 1034 0 
L 19 3319 
L 600 3319 
L 1128 1403 
L 1325 691 
Q 1338 744 1497 1375 
L 2025 3319 
L 2603 3319 
L 3100 1394 
L 3266 759 
L 3456 1400 
L 4025 3319 
L 4572 3319 
L 3534 0 
L 2950 0 
L 2422 1988 
L 2294 2553 
L 1622 0 
L 1034 0 
z
" id="ArialMT-77" transform="scale(0.015625)"/>
      <path d="M 2597 0 
L 2597 488 
Q 2209 -75 1544 -75 
Q 1250 -75 995 37 
Q 741 150 617 320 
Q 494 491 444 738 
Q 409 903 409 1263 
L 409 3319 
L 972 3319 
L 972 1478 
Q 972 1038 1006 884 
Q 1059 663 1231 536 
Q 1403 409 1656 409 
Q 1909 409 2131 539 
Q 2353 669 2445 892 
Q 2538 1116 2538 1541 
L 2538 3319 
L 3100 3319 
L 3100 0 
L 2597 0 
z
" id="ArialMT-75" transform="scale(0.015625)"/>
      <path d="M 397 -1278 
L 334 -750 
Q 519 -800 656 -800 
Q 844 -800 956 -737 
Q 1069 -675 1141 -563 
Q 1194 -478 1313 -144 
Q 1328 -97 1363 -6 
L 103 3319 
L 709 3319 
L 1400 1397 
Q 1534 1031 1641 628 
Q 1738 1016 1872 1384 
L 2581 3319 
L 3144 3319 
L 1881 -56 
Q 1678 -603 1566 -809 
Q 1416 -1088 1222 -1217 
Q 1028 -1347 759 -1347 
Q 597 -1347 397 -1278 
z
" id="ArialMT-79" transform="scale(0.015625)"/>
      <path d="M 2575 0 
L 2575 419 
Q 2259 -75 1647 -75 
Q 1250 -75 917 144 
Q 584 363 401 755 
Q 219 1147 219 1656 
Q 219 2153 384 2558 
Q 550 2963 881 3178 
Q 1213 3394 1622 3394 
Q 1922 3394 2156 3267 
Q 2391 3141 2538 2938 
L 2538 4581 
L 3097 4581 
L 3097 0 
L 2575 0 
z
M 797 1656 
Q 797 1019 1065 703 
Q 1334 388 1700 388 
Q 2069 388 2326 689 
Q 2584 991 2584 1609 
Q 2584 2291 2321 2609 
Q 2059 2928 1675 2928 
Q 1300 2928 1048 2622 
Q 797 2316 797 1656 
z
" id="ArialMT-64" transform="scale(0.015625)"/>
      <path d="M 941 0 
L 419 0 
L 419 4581 
L 981 4581 
L 981 2947 
Q 1338 3394 1891 3394 
Q 2197 3394 2470 3270 
Q 2744 3147 2920 2923 
Q 3097 2700 3197 2384 
Q 3297 2069 3297 1709 
Q 3297 856 2875 390 
Q 2453 -75 1863 -75 
Q 1275 -75 941 416 
L 941 0 
z
M 934 1684 
Q 934 1088 1097 822 
Q 1363 388 1816 388 
Q 2184 388 2453 708 
Q 2722 1028 2722 1663 
Q 2722 2313 2464 2622 
Q 2206 2931 1841 2931 
Q 1472 2931 1203 2611 
Q 934 2291 934 1684 
z
" id="ArialMT-62" transform="scale(0.015625)"/>
      <path d="M 556 0 
L 556 2881 
L 59 2881 
L 59 3319 
L 556 3319 
L 556 3672 
Q 556 4006 616 4169 
Q 697 4388 901 4523 
Q 1106 4659 1475 4659 
Q 1713 4659 2000 4603 
L 1916 4113 
Q 1741 4144 1584 4144 
Q 1328 4144 1222 4034 
Q 1116 3925 1116 3625 
L 1116 3319 
L 1763 3319 
L 1763 2881 
L 1116 2881 
L 1116 0 
L 556 0 
z
" id="ArialMT-66" transform="scale(0.015625)"/>
     </defs>
     <use xlink:href="#ArialMT-53"/>
     <use x="66.699219" xlink:href="#ArialMT-65"/>
     <use x="122.314453" xlink:href="#ArialMT-61"/>
     <use x="177.929688" xlink:href="#ArialMT-73"/>
     <use x="227.929688" xlink:href="#ArialMT-6f"/>
     <use x="283.544922" xlink:href="#ArialMT-6e"/>
     <use x="339.160156" xlink:href="#ArialMT-20"/>
     <use x="366.943359" xlink:href="#ArialMT-77"/>
     <use x="439.160156" xlink:href="#ArialMT-69"/>
     <use x="461.376953" xlink:href="#ArialMT-73"/>
     <use x="511.376953" xlink:href="#ArialMT-65"/>
     <use x="566.992188" xlink:href="#ArialMT-20"/>
     <use x="594.775391" xlink:href="#ArialMT-68"/>
     <use x="650.390625" xlink:href="#ArialMT-6f"/>
     <use x="706.005859" xlink:href="#ArialMT-75"/>
     <use x="761.621094" xlink:href="#ArialMT-72"/>
     <use x="794.921875" xlink:href="#ArialMT-6c"/>
     <use x="817.138672" xlink:href="#ArialMT-79"/>
     <use x="867.138672" xlink:href="#ArialMT-20"/>
     <use x="894.921875" xlink:href="#ArialMT-64"/>
     <use x="950.537109" xlink:href="#ArialMT-69"/>
     <use x="972.753906" xlink:href="#ArialMT-73"/>
     <use x="1022.753906" xlink:href="#ArialMT-74"/>
     <use x="1050.537109" xlink:href="#ArialMT-72"/>
     <use x="1083.837891" xlink:href="#ArialMT-69"/>
     <use x="1106.054688" xlink:href="#ArialMT-62"/>
     <use x="1161.669922" xlink:href="#ArialMT-75"/>
     <use x="1217.285156" xlink:href="#ArialMT-74"/>
     <use x="1245.068359" xlink:href="#ArialMT-69"/>
     <use x="1267.285156" xlink:href="#ArialMT-6f"/>
     <use x="1322.900391" xlink:href="#ArialMT-6e"/>
     <use x="1378.515625" xlink:href="#ArialMT-20"/>
     <use x="1406.298828" xlink:href="#ArialMT-6f"/>
     <use x="1461.914062" xlink:href="#ArialMT-66"/>
     <use x="1489.697266" xlink:href="#ArialMT-20"/>
     <use x="1517.480469" xlink:href="#ArialMT-62"/>
     <use x="1573.095703" xlink:href="#ArialMT-69"/>
     <use x="1595.3125" xlink:href="#ArialMT-6b"/>
     <use x="1645.3125" xlink:href="#ArialMT-65"/>
     <use x="1700.927734" xlink:href="#ArialMT-20"/>
     <use x="1728.710938" xlink:href="#ArialMT-72"/>
     <use x="1762.011719" xlink:href="#ArialMT-65"/>
     <use x="1817.626953" xlink:href="#ArialMT-6e"/>
     <use x="1873.242188" xlink:href="#ArialMT-74"/>
     <use x="1901.025391" xlink:href="#ArialMT-61"/>
     <use x="1956.640625" xlink:href="#ArialMT-6c"/>
     <use x="1978.857422" xlink:href="#ArialMT-73"/>
    </g>
   </g>
   <g id="PathCollection_4">
    <defs>
     <path d="M 0 2.819957 
C 0.747861 2.819957 1.465193 2.522828 1.994011 1.994011 
C 2.522828 1.465193 2.819957 0.747861 2.819957 0 
C 2.819957 -0.747861 2.522828 -1.465193 1.994011 -1.994011 
C 1.465193 -2.522828 0.747861 -2.819957 0 -2.819957 
C -0.747861 -2.819957 -1.465193 -2.522828 -1.994011 -1.994011 
C -2.522828 -1.465193 -2.819957 -0.747861 -2.819957 0 
C -2.819957 0.747861 -2.522828 1.465193 -1.994011 1.994011 
C -1.465193 2.522828 -0.747861 2.819957 0 2.819957 
z
" id="m57556e806a" style="stroke:#c44e52;stroke-width:1.6875;"/>
    </defs>
    <g clip-path="url(#p9d52a54a91)">
     <use style="fill:#c44e52;stroke:#c44e52;stroke-width:1.6875;" x="73.290563" xlink:href="#m57556e806a" y="403.456553"/>
     <use style="fill:#c44e52;stroke:#c44e52;stroke-width:1.6875;" x="110.490563" xlink:href="#m57556e806a" y="416.910152"/>
     <use style="fill:#c44e52;stroke:#c44e52;stroke-width:1.6875;" x="147.690562" xlink:href="#m57556e806a" y="424.921027"/>
     <use style="fill:#c44e52;stroke:#c44e52;stroke-width:1.6875;" x="184.890562" xlink:href="#m57556e806a" y="432.766936"/>
     <use style="fill:#c44e52;stroke:#c44e52;stroke-width:1.6875;" x="222.090562" xlink:href="#m57556e806a" y="435.794871"/>
     <use style="fill:#c44e52;stroke:#c44e52;stroke-width:1.6875;" x="259.290562" xlink:href="#m57556e806a" y="425.69531"/>
     <use style="fill:#c44e52;stroke:#c44e52;stroke-width:1.6875;" x="296.490563" xlink:href="#m57556e806a" y="386.750024"/>
     <use style="fill:#c44e52;stroke:#c44e52;stroke-width:1.6875;" x="333.690562" xlink:href="#m57556e806a" y="287.937596"/>
     <use style="fill:#c44e52;stroke:#c44e52;stroke-width:1.6875;" x="370.890562" xlink:href="#m57556e806a" y="179.362633"/>
     <use style="fill:#c44e52;stroke:#c44e52;stroke-width:1.6875;" x="408.090562" xlink:href="#m57556e806a" y="282.773601"/>
     <use style="fill:#c44e52;stroke:#c44e52;stroke-width:1.6875;" x="445.290562" xlink:href="#m57556e806a" y="317.030473"/>
     <use style="fill:#c44e52;stroke:#c44e52;stroke-width:1.6875;" x="482.490562" xlink:href="#m57556e806a" y="291.390245"/>
     <use style="fill:#c44e52;stroke:#c44e52;stroke-width:1.6875;" x="519.690562" xlink:href="#m57556e806a" y="254.946445"/>
     <use style="fill:#c44e52;stroke:#c44e52;stroke-width:1.6875;" x="556.890562" xlink:href="#m57556e806a" y="257.883103"/>
     <use style="fill:#c44e52;stroke:#c44e52;stroke-width:1.6875;" x="594.090562" xlink:href="#m57556e806a" y="265.263243"/>
     <use style="fill:#c44e52;stroke:#c44e52;stroke-width:1.6875;" x="631.290562" xlink:href="#m57556e806a" y="256.162808"/>
     <use style="fill:#c44e52;stroke:#c44e52;stroke-width:1.6875;" x="668.490562" xlink:href="#m57556e806a" y="211.948992"/>
     <use style="fill:#c44e52;stroke:#c44e52;stroke-width:1.6875;" x="705.690562" xlink:href="#m57556e806a" y="120.170135"/>
     <use style="fill:#c44e52;stroke:#c44e52;stroke-width:1.6875;" x="742.890562" xlink:href="#m57556e806a" y="159.722026"/>
     <use style="fill:#c44e52;stroke:#c44e52;stroke-width:1.6875;" x="780.090562" xlink:href="#m57556e806a" y="244.817053"/>
     <use style="fill:#c44e52;stroke:#c44e52;stroke-width:1.6875;" x="817.290562" xlink:href="#m57556e806a" y="300.767601"/>
     <use style="fill:#c44e52;stroke:#c44e52;stroke-width:1.6875;" x="854.490562" xlink:href="#m57556e806a" y="334.2575"/>
     <use style="fill:#c44e52;stroke:#c44e52;stroke-width:1.6875;" x="891.690562" xlink:href="#m57556e806a" y="359.145924"/>
     <use style="fill:#c44e52;stroke:#c44e52;stroke-width:1.6875;" x="928.890562" xlink:href="#m57556e806a" y="383.613583"/>
    </g>
   </g>
   <g id="line2d_83">
    <path clip-path="url(#p9d52a54a91)" d="M 73.290563 403.456553 
L 110.490563 416.910152 
L 147.690562 424.921027 
L 184.890562 432.766936 
L 222.090562 435.794871 
L 259.290562 425.69531 
L 296.490563 386.750024 
L 333.690562 287.937596 
L 370.890562 179.362633 
L 408.090562 282.773601 
L 445.290562 317.030473 
L 482.490562 291.390245 
L 519.690562 254.946445 
L 556.890562 257.883103 
L 594.090562 265.263243 
L 631.290562 256.162808 
L 668.490562 211.948992 
L 705.690562 120.170135 
L 742.890562 159.722026 
L 780.090562 244.817053 
L 817.290562 300.767601 
L 854.490562 334.2575 
L 891.690562 359.145924 
L 928.890562 383.613583 
" style="fill:none;stroke:#c44e52;stroke-linecap:round;stroke-width:2.25;"/>
   </g>
   <g id="line2d_84">
    <path clip-path="url(#p9d52a54a91)" d="M 73.290563 407.647725 
L 73.290563 399.302897 
" style="fill:none;stroke:#c44e52;stroke-linecap:round;stroke-width:4.5;"/>
   </g>
   <g id="line2d_85">
    <path clip-path="url(#p9d52a54a91)" d="M 110.490563 420.407926 
L 110.490563 413.161201 
" style="fill:none;stroke:#c44e52;stroke-linecap:round;stroke-width:4.5;"/>
   </g>
   <g id="line2d_86">
    <path clip-path="url(#p9d52a54a91)" d="M 147.690562 427.422213 
L 147.690562 422.18295 
" style="fill:none;stroke:#c44e52;stroke-linecap:round;stroke-width:4.5;"/>
   </g>
   <g id="line2d_87">
    <path clip-path="url(#p9d52a54a91)" d="M 184.890562 434.184421 
L 184.890562 431.387738 
" style="fill:none;stroke:#c44e52;stroke-linecap:round;stroke-width:4.5;"/>
   </g>
   <g id="line2d_88">
    <path clip-path="url(#p9d52a54a91)" d="M 222.090562 436.105685 
L 222.090562 435.457751 
" style="fill:none;stroke:#c44e52;stroke-linecap:round;stroke-width:4.5;"/>
   </g>
   <g id="line2d_89">
    <path clip-path="url(#p9d52a54a91)" d="M 259.290562 427.017297 
L 259.290562 424.339621 
" style="fill:none;stroke:#c44e52;stroke-linecap:round;stroke-width:4.5;"/>
   </g>
   <g id="line2d_90">
    <path clip-path="url(#p9d52a54a91)" d="M 296.490563 391.552278 
L 296.490563 381.794237 
" style="fill:none;stroke:#c44e52;stroke-linecap:round;stroke-width:4.5;"/>
   </g>
   <g id="line2d_91">
    <path clip-path="url(#p9d52a54a91)" d="M 333.690562 303.218846 
L 333.690562 272.752492 
" style="fill:none;stroke:#c44e52;stroke-linecap:round;stroke-width:4.5;"/>
   </g>
   <g id="line2d_92">
    <path clip-path="url(#p9d52a54a91)" d="M 370.890562 203.798833 
L 370.890562 156.388191 
" style="fill:none;stroke:#c44e52;stroke-linecap:round;stroke-width:4.5;"/>
   </g>
   <g id="line2d_93">
    <path clip-path="url(#p9d52a54a91)" d="M 408.090562 291.675126 
L 408.090562 273.878348 
" style="fill:none;stroke:#c44e52;stroke-linecap:round;stroke-width:4.5;"/>
   </g>
   <g id="line2d_94">
    <path clip-path="url(#p9d52a54a91)" d="M 445.290562 326.50691 
L 445.290562 306.363491 
" style="fill:none;stroke:#c44e52;stroke-linecap:round;stroke-width:4.5;"/>
   </g>
   <g id="line2d_95">
    <path clip-path="url(#p9d52a54a91)" d="M 482.490562 304.008705 
L 482.490562 277.94167 
" style="fill:none;stroke:#c44e52;stroke-linecap:round;stroke-width:4.5;"/>
   </g>
   <g id="line2d_96">
    <path clip-path="url(#p9d52a54a91)" d="M 519.690562 268.367871 
L 519.690562 240.549047 
" style="fill:none;stroke:#c44e52;stroke-linecap:round;stroke-width:4.5;"/>
   </g>
   <g id="line2d_97">
    <path clip-path="url(#p9d52a54a91)" d="M 556.890562 272.328648 
L 556.890562 243.676985 
" style="fill:none;stroke:#c44e52;stroke-linecap:round;stroke-width:4.5;"/>
   </g>
   <g id="line2d_98">
    <path clip-path="url(#p9d52a54a91)" d="M 594.090562 278.347353 
L 594.090562 249.505043 
" style="fill:none;stroke:#c44e52;stroke-linecap:round;stroke-width:4.5;"/>
   </g>
   <g id="line2d_99">
    <path clip-path="url(#p9d52a54a91)" d="M 631.290562 270.388103 
L 631.290562 241.501482 
" style="fill:none;stroke:#c44e52;stroke-linecap:round;stroke-width:4.5;"/>
   </g>
   <g id="line2d_100">
    <path clip-path="url(#p9d52a54a91)" d="M 668.490562 225.253445 
L 668.490562 199.270473 
" style="fill:none;stroke:#c44e52;stroke-linecap:round;stroke-width:4.5;"/>
   </g>
   <g id="line2d_101">
    <path clip-path="url(#p9d52a54a91)" d="M 705.690562 141.702867 
L 705.690562 99.006317 
" style="fill:none;stroke:#c44e52;stroke-linecap:round;stroke-width:4.5;"/>
   </g>
   <g id="line2d_102">
    <path clip-path="url(#p9d52a54a91)" d="M 742.890562 178.765171 
L 742.890562 140.988218 
" style="fill:none;stroke:#c44e52;stroke-linecap:round;stroke-width:4.5;"/>
   </g>
   <g id="line2d_103">
    <path clip-path="url(#p9d52a54a91)" d="M 780.090562 257.19964 
L 780.090562 231.73164 
" style="fill:none;stroke:#c44e52;stroke-linecap:round;stroke-width:4.5;"/>
   </g>
   <g id="line2d_104">
    <path clip-path="url(#p9d52a54a91)" d="M 817.290562 309.721978 
L 817.290562 291.602561 
" style="fill:none;stroke:#c44e52;stroke-linecap:round;stroke-width:4.5;"/>
   </g>
   <g id="line2d_105">
    <path clip-path="url(#p9d52a54a91)" d="M 854.490562 340.93621 
L 854.490562 328.117871 
" style="fill:none;stroke:#c44e52;stroke-linecap:round;stroke-width:4.5;"/>
   </g>
   <g id="line2d_106">
    <path clip-path="url(#p9d52a54a91)" d="M 891.690562 363.815762 
L 891.690562 354.181923 
" style="fill:none;stroke:#c44e52;stroke-linecap:round;stroke-width:4.5;"/>
   </g>
   <g id="line2d_107">
    <path clip-path="url(#p9d52a54a91)" d="M 928.890562 387.590648 
L 928.890562 379.427718 
" style="fill:none;stroke:#c44e52;stroke-linecap:round;stroke-width:4.5;"/>
   </g>
   <g id="legend_1">
    <g id="patch_7">
     <path d="M 846.139312 129.014812 
L 938.250563 129.014812 
Q 940.890562 129.014812 940.890562 126.374812 
L 940.890562 32.92275 
Q 940.890562 30.28275 938.250563 30.28275 
L 846.139312 30.28275 
Q 843.499312 30.28275 843.499312 32.92275 
L 843.499312 126.374812 
Q 843.499312 129.014812 846.139312 129.014812 
z
" style="fill:#eaeaf2;opacity:0.8;stroke:#cccccc;stroke-linejoin:miter;stroke-width:0.8;"/>
    </g>
    <g id="text_35">
     <!-- cat_season -->
     <g style="fill:#262626;" transform="translate(855.371437 45.87)scale(0.144 -0.144)">
      <defs>
       <path d="M 2588 1216 
L 3141 1144 
Q 3050 572 2676 248 
Q 2303 -75 1759 -75 
Q 1078 -75 664 370 
Q 250 816 250 1647 
Q 250 2184 428 2587 
Q 606 2991 970 3192 
Q 1334 3394 1763 3394 
Q 2303 3394 2647 3120 
Q 2991 2847 3088 2344 
L 2541 2259 
Q 2463 2594 2264 2762 
Q 2066 2931 1784 2931 
Q 1359 2931 1093 2626 
Q 828 2322 828 1663 
Q 828 994 1084 691 
Q 1341 388 1753 388 
Q 2084 388 2306 591 
Q 2528 794 2588 1216 
z
" id="ArialMT-63" transform="scale(0.015625)"/>
       <path d="M -97 -1272 
L -97 -866 
L 3631 -866 
L 3631 -1272 
L -97 -1272 
z
" id="ArialMT-5f" transform="scale(0.015625)"/>
      </defs>
      <use xlink:href="#ArialMT-63"/>
      <use x="50" xlink:href="#ArialMT-61"/>
      <use x="105.615234" xlink:href="#ArialMT-74"/>
      <use x="133.398438" xlink:href="#ArialMT-5f"/>
      <use x="189.013672" xlink:href="#ArialMT-73"/>
      <use x="239.013672" xlink:href="#ArialMT-65"/>
      <use x="294.628906" xlink:href="#ArialMT-61"/>
      <use x="350.244141" xlink:href="#ArialMT-73"/>
      <use x="400.244141" xlink:href="#ArialMT-6f"/>
      <use x="455.859375" xlink:href="#ArialMT-6e"/>
     </g>
    </g>
    <g id="PathCollection_5">
     <g>
      <use style="fill:#4c72b0;stroke:#4c72b0;stroke-width:1.6875;" x="861.979312" xlink:href="#m943b0fa8e7" y="61.315312"/>
     </g>
    </g>
    <g id="text_36">
     <!-- Winter -->
     <g style="fill:#262626;" transform="translate(885.739312 64.780312)scale(0.132 -0.132)">
      <defs>
       <path d="M 1294 0 
L 78 4581 
L 700 4581 
L 1397 1578 
Q 1509 1106 1591 641 
Q 1766 1375 1797 1488 
L 2669 4581 
L 3400 4581 
L 4056 2263 
Q 4303 1400 4413 641 
Q 4500 1075 4641 1638 
L 5359 4581 
L 5969 4581 
L 4713 0 
L 4128 0 
L 3163 3491 
Q 3041 3928 3019 4028 
Q 2947 3713 2884 3491 
L 1913 0 
L 1294 0 
z
" id="ArialMT-57" transform="scale(0.015625)"/>
      </defs>
      <use xlink:href="#ArialMT-57"/>
      <use x="94.384766" xlink:href="#ArialMT-69"/>
      <use x="116.601562" xlink:href="#ArialMT-6e"/>
      <use x="172.216797" xlink:href="#ArialMT-74"/>
      <use x="200" xlink:href="#ArialMT-65"/>
      <use x="255.615234" xlink:href="#ArialMT-72"/>
     </g>
    </g>
    <g id="PathCollection_6">
     <g>
      <use style="fill:#dd8452;stroke:#dd8452;stroke-width:1.6875;" x="861.979312" xlink:href="#m5b57d87eec" y="80.148"/>
     </g>
    </g>
    <g id="text_37">
     <!-- Spring -->
     <g style="fill:#262626;" transform="translate(885.739312 83.613)scale(0.132 -0.132)">
      <defs>
       <path d="M 422 -1272 
L 422 3319 
L 934 3319 
L 934 2888 
Q 1116 3141 1344 3267 
Q 1572 3394 1897 3394 
Q 2322 3394 2647 3175 
Q 2972 2956 3137 2557 
Q 3303 2159 3303 1684 
Q 3303 1175 3120 767 
Q 2938 359 2589 142 
Q 2241 -75 1856 -75 
Q 1575 -75 1351 44 
Q 1128 163 984 344 
L 984 -1272 
L 422 -1272 
z
M 931 1641 
Q 931 1000 1190 694 
Q 1450 388 1819 388 
Q 2194 388 2461 705 
Q 2728 1022 2728 1688 
Q 2728 2322 2467 2637 
Q 2206 2953 1844 2953 
Q 1484 2953 1207 2617 
Q 931 2281 931 1641 
z
" id="ArialMT-70" transform="scale(0.015625)"/>
       <path d="M 319 -275 
L 866 -356 
Q 900 -609 1056 -725 
Q 1266 -881 1628 -881 
Q 2019 -881 2231 -725 
Q 2444 -569 2519 -288 
Q 2563 -116 2559 434 
Q 2191 0 1641 0 
Q 956 0 581 494 
Q 206 988 206 1678 
Q 206 2153 378 2554 
Q 550 2956 876 3175 
Q 1203 3394 1644 3394 
Q 2231 3394 2613 2919 
L 2613 3319 
L 3131 3319 
L 3131 450 
Q 3131 -325 2973 -648 
Q 2816 -972 2473 -1159 
Q 2131 -1347 1631 -1347 
Q 1038 -1347 672 -1080 
Q 306 -813 319 -275 
z
M 784 1719 
Q 784 1066 1043 766 
Q 1303 466 1694 466 
Q 2081 466 2343 764 
Q 2606 1063 2606 1700 
Q 2606 2309 2336 2618 
Q 2066 2928 1684 2928 
Q 1309 2928 1046 2623 
Q 784 2319 784 1719 
z
" id="ArialMT-67" transform="scale(0.015625)"/>
      </defs>
      <use xlink:href="#ArialMT-53"/>
      <use x="66.699219" xlink:href="#ArialMT-70"/>
      <use x="122.314453" xlink:href="#ArialMT-72"/>
      <use x="155.615234" xlink:href="#ArialMT-69"/>
      <use x="177.832031" xlink:href="#ArialMT-6e"/>
      <use x="233.447266" xlink:href="#ArialMT-67"/>
     </g>
    </g>
    <g id="PathCollection_7">
     <g>
      <use style="fill:#55a868;stroke:#55a868;stroke-width:1.6875;" x="861.979312" xlink:href="#m8e98315992" y="98.9745"/>
     </g>
    </g>
    <g id="text_38">
     <!-- Summer -->
     <g style="fill:#262626;" transform="translate(885.739312 102.4395)scale(0.132 -0.132)">
      <defs>
       <path d="M 422 0 
L 422 3319 
L 925 3319 
L 925 2853 
Q 1081 3097 1340 3245 
Q 1600 3394 1931 3394 
Q 2300 3394 2536 3241 
Q 2772 3088 2869 2813 
Q 3263 3394 3894 3394 
Q 4388 3394 4653 3120 
Q 4919 2847 4919 2278 
L 4919 0 
L 4359 0 
L 4359 2091 
Q 4359 2428 4304 2576 
Q 4250 2725 4106 2815 
Q 3963 2906 3769 2906 
Q 3419 2906 3187 2673 
Q 2956 2441 2956 1928 
L 2956 0 
L 2394 0 
L 2394 2156 
Q 2394 2531 2256 2718 
Q 2119 2906 1806 2906 
Q 1569 2906 1367 2781 
Q 1166 2656 1075 2415 
Q 984 2175 984 1722 
L 984 0 
L 422 0 
z
" id="ArialMT-6d" transform="scale(0.015625)"/>
      </defs>
      <use xlink:href="#ArialMT-53"/>
      <use x="66.699219" xlink:href="#ArialMT-75"/>
      <use x="122.314453" xlink:href="#ArialMT-6d"/>
      <use x="205.615234" xlink:href="#ArialMT-6d"/>
      <use x="288.916016" xlink:href="#ArialMT-65"/>
      <use x="344.53125" xlink:href="#ArialMT-72"/>
     </g>
    </g>
    <g id="PathCollection_8">
     <g>
      <use style="fill:#c44e52;stroke:#c44e52;stroke-width:1.6875;" x="861.979312" xlink:href="#m57556e806a" y="117.646312"/>
     </g>
    </g>
    <g id="text_39">
     <!-- Fall -->
     <g style="fill:#262626;" transform="translate(885.739312 121.111312)scale(0.132 -0.132)">
      <defs>
       <path d="M 525 0 
L 525 4581 
L 3616 4581 
L 3616 4041 
L 1131 4041 
L 1131 2622 
L 3281 2622 
L 3281 2081 
L 1131 2081 
L 1131 0 
L 525 0 
z
" id="ArialMT-46" transform="scale(0.015625)"/>
      </defs>
      <use xlink:href="#ArialMT-46"/>
      <use x="61.083984" xlink:href="#ArialMT-61"/>
      <use x="116.699219" xlink:href="#ArialMT-6c"/>
      <use x="138.916016" xlink:href="#ArialMT-6c"/>
     </g>
    </g>
   </g>
  </g>
 </g>
 <defs>
  <clipPath id="p9d52a54a91">
   <rect height="434.88" width="892.8" x="54.690563" y="23.68275"/>
  </clipPath>
 </defs>
</svg>
